# xmcd
#
# Track frame offsets: 
#        150
#        16733
#        33657
#        48340
#        53400
#        70152
#        93046
#        104765
#        118534
#        133883
#        164148
#        178018
#        194477
#        211405
#        231645
#
# Disc length: 3359 seconds
#
# Revision: 1
# Processed by: cddbd v1.5.2PL0 Copyright (c) Steve Scherf et al.
# Submitted via: ExactAudioCopy v1.0b3
#
DISCID=da0d1d0f
DTITLE=Acid Drinkers - Infernal Connection
DYEAR=1994
DGENRE=Thrash Metal
TTITLE0=Hyperenigmatic Staff Of Mr. Nothing
TTITLE1=Anybody Home?!
TTITLE2=The Joker
TTITLE3=Track Time 66.6 sec
TTITLE4=Drug Dealer
TTITLE5=Slow And Stoned - Method Of Yonash
TTITLE6=Dancing In The Slaughter - House
TTITLE7=IQ Cyco
TTITLE8=Acid Drinkers feat. Lipa - Backyard Bandit
TTITLE9=Infernal Connection
TTITLE10=Acid Drinkers feat. Kazik and Skawa - Konsument
TTITLE11=Slow And Stoned - Method Of Yonash [Bonar Remix]
TTITLE12=Slow And Stoned - Method Of Yonash [Techno Remix]
TTITLE13=Slow And Stoned - Method Of Yonash [Bonor Remix]
TTITLE14=Acid Studio Praca Wyglup
EXTD=
EXTT0=
EXTT1=
EXTT2=
EXTT3=
EXTT4=
EXTT5=
EXTT6=
EXTT7=
EXTT8=
EXTT9=
EXTT10=
EXTT11=
EXTT12=
EXTT13=
EXTT14=
PLAYORDER=
